<?xml version="1.0" standalone="no"?>
<!DOCTYPE svg PUBLIC "-//W3C//DTD SVG 20010904//EN"
 "http://www.w3.org/TR/2001/REC-SVG-20010904/DTD/svg10.dtd">
<svg version="1.0" xmlns="http://www.w3.org/2000/svg"
 width="745.000000pt" height="1080.000000pt" viewBox="0 0 745.000000 1080.000000"
 preserveAspectRatio="xMidYMid meet">

<g transform="translate(0.000000,1080.000000) scale(0.100000,-0.100000)"
fill="#000000" stroke="none">
<path d="M5615 10199 c-11 -17 -2 -18 19 -3 17 12 17 14 4 14 -9 0 -20 -5 -23
-11z"/>
<path d="M6480 9650 c-8 -5 -10 -10 -5 -10 6 0 17 5 25 10 8 5 11 10 5 10 -5
0 -17 -5 -25 -10z"/>
<path d="M826 8961 c-4 -5 1 -8 9 -7 21 3 31 16 12 16 -9 0 -18 -4 -21 -9z"/>
<path d="M1560 8958 c0 -22 -80 -88 -111 -90 -16 -1 -29 -8 -29 -16 0 -7 -4
-11 -9 -8 -5 4 -12 -55 -16 -134 -4 -77 -11 -140 -14 -140 -4 0 -8 -21 -10
-47 -1 -27 -6 -49 -12 -51 -5 -2 -9 -12 -9 -21 0 -22 -58 -139 -82 -165 -10
-11 -18 -25 -18 -32 0 -6 -16 -29 -35 -50 -36 -39 -43 -50 -25 -39 6 4 18 -11
27 -34 9 -23 20 -41 25 -41 4 0 8 -6 8 -13 0 -7 12 -29 26 -48 14 -19 35 -52
45 -74 11 -22 35 -67 54 -100 19 -33 37 -68 41 -77 3 -9 17 -24 30 -33 14 -9
22 -20 19 -26 -4 -5 4 -23 16 -40 18 -26 19 -33 8 -40 -26 -16 2 -9 40 11 52
26 128 113 158 180 14 30 29 63 34 72 5 10 5 19 -1 23 -6 3 -10 1 -10 -4 0 -6
-4 -11 -10 -11 -5 0 -10 9 -10 20 0 10 -6 23 -13 27 -8 4 -22 23 -33 42 -10
19 -34 57 -51 85 -18 28 -33 56 -33 62 0 6 -7 17 -15 24 -11 9 -12 16 -4 26
13 16 -2 49 -30 64 -14 7 -19 21 -19 60 0 35 5 53 14 57 8 3 14 14 14 24 0 15
17 28 63 48 35 16 82 40 103 54 22 13 54 28 73 32 41 9 114 -10 137 -36 9 -11
26 -19 36 -19 13 0 25 -13 36 -39 9 -22 27 -45 40 -50 26 -13 29 -31 5 -32
-36 -3 -90 -5 -165 -7 l-78 -2 6 -62 c7 -71 18 -92 28 -53 6 22 9 25 21 15 11
-9 15 -9 15 -1 0 6 7 11 15 11 8 0 15 5 15 10 0 18 53 33 113 31 31 0 57 4 57
9 0 6 5 10 11 10 5 0 8 -4 4 -9 -3 -5 7 -11 22 -13 19 -2 28 -8 27 -20 -1 -10
2 -15 7 -12 5 3 9 12 9 20 0 9 10 14 33 13 17 -1 24 -3 15 -6 -10 -2 -18 -9
-18 -14 0 -6 5 -7 11 -3 16 9 111 15 105 6 -3 -5 17 -8 45 -7 27 1 49 -3 49
-7 0 -5 9 -4 19 1 15 8 20 7 26 -7 6 -15 8 -15 18 -2 15 19 69 21 62 2 -4 -10
6 -12 43 -8 l47 6 -40 -14 c-22 -8 -36 -14 -32 -15 15 -2 161 31 178 40 9 4
19 5 23 2 12 -12 46 -10 46 3 0 6 11 14 25 16 13 3 22 2 20 -2 -6 -9 53 -6 62
4 3 3 -2 6 -12 6 -14 0 -15 3 -5 15 7 8 25 15 41 15 15 0 30 4 33 9 3 4 133
11 288 14 156 4 295 9 311 13 27 6 27 7 7 24 -16 14 -17 20 -8 28 24 18 97 52
115 52 10 0 27 7 37 15 11 8 28 15 38 15 14 0 18 8 18 35 0 31 3 35 39 45 58
15 91 59 91 121 0 40 -5 55 -29 81 -27 30 -34 33 -90 33 -52 0 -64 -4 -89 -28
-25 -24 -30 -26 -36 -12 -4 10 -2 14 6 9 7 -4 8 -3 4 5 -4 6 -11 9 -16 6 -5
-3 -19 -1 -30 5 -15 8 -25 8 -34 1 -7 -6 -15 -9 -18 -6 -3 3 -23 -13 -45 -35
-23 -22 -46 -40 -53 -40 -6 0 -18 -7 -26 -15 -9 -8 -24 -15 -34 -15 -10 0 -25
7 -34 15 -8 8 -27 15 -41 15 -21 0 -26 4 -21 16 19 50 18 64 -3 64 -12 0 -21
6 -21 15 0 14 -12 19 -32 16 -5 0 -8 3 -8 7 0 5 -8 17 -17 28 -10 11 -27 38
-38 59 l-20 40 -783 3 c-602 2 -782 -1 -782 -10z m114 -162 c57 -24 81 -109
44 -154 -9 -10 -22 6 -59 70 -58 100 -56 114 15 84z m2106 -1 c16 -8 36 -25
44 -37 20 -28 21 -88 2 -113 -12 -17 -17 -12 -60 60 -25 44 -46 85 -46 92 0
17 25 16 60 -2z m-2157 -96 c26 -45 46 -87 44 -93 -2 -6 -16 11 -30 37 -15 26
-38 67 -52 92 -14 25 -22 45 -18 45 5 0 30 -37 56 -81z m2107 0 c52 -94 54
-99 43 -99 -5 0 -17 17 -28 38 -11 20 -32 57 -47 81 -29 46 -34 61 -20 61 4 0
27 -37 52 -81z m-2160 30 c0 -4 16 -34 35 -66 19 -32 35 -61 35 -66 0 -4 -12
-4 -27 -1 -61 15 -101 79 -82 133 9 26 14 29 25 20 8 -6 14 -15 14 -20z m2128
-43 c45 -78 50 -96 28 -96 -30 0 -81 46 -90 81 -9 36 -2 89 12 89 4 -1 26 -34
50 -74z m-1461 -382 c-3 -3 -12 -4 -19 -1 -8 3 -5 6 6 6 11 1 17 -2 13 -5z
m503 -7 c-14 -8 -27 -12 -30 -10 -7 6 23 23 40 23 8 0 4 -6 -10 -13z m-130
-11 c0 -3 -4 -8 -10 -11 -5 -3 -10 -1 -10 4 0 6 5 11 10 11 6 0 10 -2 10 -4z"/>
<path d="M5802 8938 c-2 -17 -7 -38 -13 -45 -6 -7 -9 -20 -5 -28 3 -9 2 -13
-4 -10 -5 3 -18 1 -27 -5 -17 -11 -17 -11 0 -6 33 10 17 -4 -30 -27 -51 -24
-82 -68 -83 -118 0 -32 37 -90 70 -106 53 -27 137 -7 161 38 9 18 13 19 21 8
7 -10 8 -5 4 16 -3 17 -3 24 0 17 3 -6 10 -10 15 -7 5 4 6 -1 3 -10 -6 -14 1
-16 46 -14 40 2 55 -1 58 -11 3 -13 2 -13 -8 0 -9 12 -11 12 -8 1 6 -22 28
-25 29 -4 1 13 3 11 8 -7 5 -14 8 59 7 162 l-1 188 -120 0 -121 0 -2 -32z m41
-168 c30 -34 37 -93 14 -124 -12 -17 -18 -11 -60 61 -26 44 -47 86 -47 93 0
22 63 2 93 -30z m-79 -76 c26 -47 46 -88 43 -90 -6 -6 -11 2 -71 102 -37 64
-41 74 -28 74 4 0 29 -39 56 -86z m-12 -51 c26 -49 20 -61 -23 -43 -55 23 -84
94 -58 142 11 20 13 20 35 -18 13 -21 34 -58 46 -81z"/>
<path d="M5584 8343 c4 -5 11 -8 14 -9 4 0 15 -4 25 -9 15 -6 16 -10 5 -16
-10 -7 -9 -9 4 -9 29 0 48 12 48 31 0 16 -8 19 -52 19 -28 0 -48 -3 -44 -7z"/>
<path d="M2858 8313 c6 -2 18 -2 25 0 6 3 1 5 -13 5 -14 0 -19 -2 -12 -5z"/>
<path d="M2040 8280 c0 -5 5 -10 11 -10 5 0 7 5 4 10 -3 6 -8 10 -11 10 -2 0
-4 -4 -4 -10z"/>
<path d="M2205 8270 c-3 -5 -1 -10 4 -10 6 0 11 5 11 10 0 6 -2 10 -4 10 -3 0
-8 -4 -11 -10z"/>
<path d="M6408 8043 c6 -2 12 -9 12 -14 0 -6 -4 -8 -8 -5 -5 3 -9 -1 -9 -9 0
-10 4 -12 12 -5 7 5 15 7 18 3 4 -3 7 -2 7 3 0 14 -22 34 -34 33 -6 0 -5 -3 2
-6z"/>
<path d="M6443 8011 c-9 -14 -8 -27 2 -58 7 -21 16 -92 19 -158 6 -131 13
-182 27 -191 5 -3 9 -13 9 -22 1 -29 66 -109 124 -151 30 -23 58 -41 62 -41 4
0 22 -11 40 -25 18 -14 35 -25 39 -25 8 0 95 -92 95 -102 0 -8 16 -29 56 -71
12 -12 24 -29 27 -37 3 -8 6 164 6 383 l1 397 -23 0 c-13 0 -77 12 -142 26
-66 15 -139 29 -162 31 -24 3 -43 9 -43 14 0 5 -13 9 -29 9 -17 0 -33 5 -37
11 -3 6 -17 9 -29 7 -16 -4 -22 -1 -18 9 8 20 -10 16 -24 -6z m316 -307 c34
-29 47 -76 32 -117 -14 -35 -24 -34 -44 6 -9 17 -30 56 -47 85 l-32 52 30 0
c18 0 43 -11 61 -26z m-103 -16 c3 -12 24 -50 45 -85 41 -66 45 -77 29 -71
-13 4 -109 166 -102 173 11 10 21 5 28 -17z m4 -87 c22 -37 40 -70 40 -74 0
-19 -46 -3 -76 27 -27 27 -34 42 -34 73 0 73 14 68 70 -26z"/>
<path d="M694 7744 c-82 -40 -85 -167 -4 -209 49 -25 96 -19 136 18 62 57 56
136 -15 184 -39 27 -73 29 -117 7z m113 -16 c48 -23 66 -117 28 -148 -10 -9
-22 5 -55 64 -22 42 -46 78 -52 82 -16 10 14 24 37 18 11 -3 30 -10 42 -16z
m-101 -26 c-3 -2 7 -23 23 -46 29 -42 61 -100 61 -111 0 -3 -4 -5 -10 -5 -5 0
-10 4 -10 9 0 5 -20 44 -45 85 -50 86 -51 88 -30 79 9 -3 14 -8 11 -11z m-1
-67 c20 -36 41 -67 46 -71 5 -3 9 -12 9 -21 0 -12 -7 -14 -32 -9 -44 8 -88 57
-88 97 0 28 15 69 25 69 2 0 20 -29 40 -65z"/>
<path d="M6200 7482 c0 -14 48 -51 55 -44 4 4 4 -4 0 -17 -6 -19 -4 -23 8 -18
17 6 43 -35 33 -52 -5 -7 2 -11 16 -10 13 0 17 3 11 6 -7 2 -13 12 -12 21 0
11 2 12 6 5 2 -7 23 -14 46 -14 23 -1 34 -3 25 -6 -10 -2 -18 -8 -18 -13 0 -4
-12 -11 -26 -14 -15 -4 -24 -9 -21 -13 3 -3 31 6 61 20 43 20 56 31 57 49 1
13 3 35 4 49 4 25 2 26 -108 42 -129 19 -137 20 -137 9z m167 -108 c-3 -3 -12
-4 -19 -1 -8 3 -5 6 6 6 11 1 17 -2 13 -5z"/>
<path d="M6410 7330 c-9 -6 -10 -10 -3 -10 6 0 15 5 18 10 8 12 4 12 -15 0z"/>
<path d="M6410 7300 c-12 -7 -10 -9 7 -7 12 0 19 5 17 9 -6 10 -6 10 -24 -2z"/>
<path d="M6366 7286 c10 -8 21 -12 24 -10 5 6 -21 24 -34 24 -6 0 -1 -6 10
-14z"/>
<path d="M6415 7260 c-3 -5 -2 -10 4 -10 5 0 13 5 16 10 3 6 2 10 -4 10 -5 0
-13 -4 -16 -10z"/>
<path d="M3054 7026 c-8 -17 -40 -96 -72 -176 -57 -141 -60 -146 -101 -166
-23 -11 -38 -24 -34 -29 4 -4 2 -5 -5 -1 -30 18 -374 -175 -564 -316 -72 -54
-83 -59 -93 -44 -18 23 -23 20 -31 -18 -5 -28 -28 -54 -124 -140 -66 -58 -122
-106 -125 -106 -4 0 -4 9 0 20 11 36 -5 40 -35 9 -21 -21 -30 -40 -30 -63 0
-22 -8 -40 -25 -56 -32 -30 -37 -17 -33 76 3 68 3 69 31 67 26 -2 32 5 28 35
-1 6 2 12 7 12 14 0 11 49 -4 79 -8 14 -14 34 -14 43 0 9 -11 30 -25 46 -13
16 -22 31 -20 34 3 3 -16 27 -42 54 -42 44 -68 87 -87 147 -7 23 -33 22 -46
-3 -7 -12 -21 -20 -37 -20 -32 0 -173 -138 -173 -170 0 -12 -9 -30 -19 -41
-30 -32 -43 -101 -30 -151 6 -24 13 -64 16 -90 4 -39 9 -47 30 -53 35 -9 53
10 46 49 -4 25 -1 35 12 40 11 4 15 2 13 -6 -4 -11 30 -53 42 -53 3 0 10 -4
17 -8 12 -8 44 1 54 16 9 13 113 46 121 38 3 -3 8 -53 9 -111 3 -115 -18 -190
-51 -190 -14 0 -16 8 -12 49 4 44 2 51 -22 66 -19 12 -36 15 -61 11 -46 -9
-64 -43 -47 -89 21 -56 -17 -49 -44 8 -17 37 -128 155 -145 155 -12 0 -11 57
1 65 13 8 13 45 1 45 -5 0 -11 -6 -14 -12 -3 -10 -8 -9 -18 3 -25 30 -54 32
-69 4 -7 -14 -18 -25 -23 -25 -6 0 1 -11 14 -24 41 -41 50 -56 47 -74 -1 -9
15 -42 38 -72 22 -30 59 -86 83 -123 l44 -68 1 -128 1 -129 85 -6 c47 -3 263
-7 480 -7 270 -1 411 -6 445 -14 70 -17 218 -19 263 -4 48 16 191 17 201 1 4
-7 20 -13 37 -14 16 -1 34 -5 39 -9 8 -6 119 -5 235 2 8 1 26 1 40 1 14 -1
128 0 253 1 126 1 231 -1 233 -5 4 -6 76 -8 379 -10 179 -1 440 5 445 11 3 3
22 14 43 24 46 21 122 22 180 2 71 -24 173 -28 252 -10 105 24 163 29 179 16
17 -14 146 -31 146 -19 0 5 35 7 78 5 54 -3 86 0 109 10 33 15 177 14 321 -3
54 -6 145 13 136 28 -3 4 2 8 10 8 15 0 21 17 17 48 -1 6 4 12 10 12 7 0 10 3
7 6 -4 3 -2 18 2 34 5 18 4 30 -2 32 -7 3 -5 9 3 18 8 8 15 29 17 45 2 17 8
34 13 40 5 5 9 15 9 22 0 8 16 31 36 51 33 34 32 59 -2 32 -22 -19 -30 -3 -9
20 27 30 12 34 -19 5 -15 -14 -32 -25 -38 -25 -5 0 -8 -6 -5 -13 3 -7 -3 -13
-13 -14 -13 -1 -16 4 -13 18 3 10 10 19 15 19 5 0 7 3 4 8 -2 4 24 47 59 96
35 48 71 109 80 134 9 26 25 64 36 84 26 51 24 63 -16 87 l-35 20 -6 -40 c-6
-37 -8 -38 -24 -24 -27 25 -32 17 -11 -22 12 -26 16 -45 11 -59 -9 -23 -78
-84 -96 -84 -12 0 -91 -82 -137 -143 -16 -21 -32 -35 -37 -32 -5 3 -6 27 -3
53 5 41 2 52 -19 76 -19 23 -33 29 -66 29 -51 0 -68 -14 -84 -64 -11 -39 -28
-53 -28 -24 0 13 -10 19 -30 17 -9 -1 -11 26 -16 223 l-5 190 27 58 c17 35 24
61 18 65 -5 4 -15 20 -22 35 -16 36 -33 31 -46 -14 -9 -31 -10 -32 -13 -9 -2
14 -6 32 -9 40 -4 13 -6 13 -14 0 -6 -8 -10 -27 -10 -42 0 -15 -4 -30 -10 -33
-5 -3 -10 -1 -10 5 0 6 -4 8 -10 5 -17 -11 -11 -72 11 -115 20 -38 21 -50 14
-181 l-7 -140 -22 14 c-11 8 -30 29 -40 47 -16 27 -17 39 -9 76 11 47 8 54
-13 27 -12 -16 -13 -13 -14 27 -1 42 -2 44 -15 26 -14 -18 -15 -18 -15 -2 0 9
-4 14 -10 11 -5 -3 -10 -18 -10 -32 0 -19 -4 -24 -16 -19 -12 5 -9 -6 10 -41
15 -25 25 -47 24 -49 -2 -1 -52 42 -113 97 -60 54 -113 99 -117 99 -5 0 -8 36
-8 79 0 85 -12 110 -29 61 -6 -20 -17 -30 -30 -30 -11 0 -24 -7 -28 -15 -8
-13 -21 -7 -80 33 -151 105 -418 252 -455 252 -10 0 -18 4 -18 9 0 5 -10 7
-22 3 -14 -3 -19 -2 -14 6 4 7 2 12 -3 12 -6 0 -11 -4 -11 -9 0 -5 -10 -7 -22
-4 -13 3 62 -38 165 -91 104 -52 248 -135 320 -183 129 -86 132 -89 135 -127
2 -22 -4 -76 -12 -120 -9 -45 -17 -107 -17 -138 -2 -58 -5 -64 -25 -50 -17 11
-74 200 -74 243 0 41 -30 84 -53 76 -13 -4 -13 -15 -2 -62 6 -28 5 -29 -8 -12
-8 10 -17 14 -20 10 -6 -9 5 -32 36 -76 12 -16 21 -50 23 -89 5 -62 5 -62 -10
-31 -17 36 -43 53 -83 53 -34 0 -46 -8 -62 -37 -14 -27 -14 -128 0 -155 13
-23 6 -35 -10 -16 -38 47 -61 69 -67 66 -15 -6 -54 65 -54 99 0 37 27 96 60
131 22 23 36 30 24 11 -4 -7 7 -3 25 7 21 13 31 25 28 36 -3 9 1 25 9 35 19
26 17 37 -8 48 -13 6 -28 22 -35 36 -7 14 -23 37 -36 51 -17 19 -21 31 -16 47
7 18 2 24 -34 42 -23 12 -73 44 -111 70 -38 27 -84 51 -102 55 -19 3 -38 14
-43 23 -15 26 -22 8 -31 -86 -28 -270 -36 -313 -64 -313 -19 0 -39 -45 -32
-73 3 -14 2 -36 -3 -49 -7 -16 -10 9 -10 90 -1 94 2 119 19 152 23 46 25 57 6
41 -11 -9 -12 -6 -8 15 3 19 1 25 -7 20 -6 -4 -11 -13 -11 -21 0 -8 -4 -16 -9
-20 -6 -3 -6 7 0 27 11 41 11 48 -1 48 -5 0 -14 -15 -19 -32 l-9 -33 -1 34
c-1 45 -11 34 -27 -31 -10 -43 -14 -49 -19 -31 -4 13 -11 20 -16 17 -15 -9
-10 -46 12 -104 19 -50 20 -67 14 -195 -4 -91 -11 -145 -20 -155 -7 -8 -15
-33 -18 -55 -3 -22 -9 -64 -13 -92 -3 -29 -8 -53 -9 -53 -14 0 -76 79 -86 108
-30 96 -134 131 -183 61 -16 -23 -26 -22 -30 4 -2 17 -31 47 -44 47 -18 0 -23
34 -16 115 7 98 22 167 35 176 7 4 8 35 3 90 -8 80 -9 82 -18 47 -6 -25 -15
-38 -27 -38 -29 0 -42 -27 -36 -74 4 -27 -1 -73 -13 -125 -11 -45 -20 -101
-21 -124 0 -37 -2 -40 -12 -23 -7 11 -31 41 -54 66 -24 26 -40 50 -36 53 3 4
1 7 -6 7 -9 0 -12 9 -8 27 4 21 -2 34 -29 61 -19 19 -34 41 -34 49 0 29 -31
79 -59 96 -53 31 -126 12 -150 -40 -19 -42 -14 -117 11 -148 l22 -28 -24 7
c-14 4 -37 10 -52 13 -37 7 -60 31 -117 121 -18 28 -71 94 -117 145 -46 50
-87 103 -90 117 -4 14 -12 34 -19 46 -8 12 -10 26 -5 34 7 12 13 12 37 1 55
-26 169 -62 292 -92 68 -17 148 -41 178 -55 30 -13 73 -29 95 -34 22 -6 56
-26 75 -44 34 -31 35 -35 34 -97 -1 -79 13 -105 52 -95 25 6 27 11 27 57 0 58
9 79 57 132 l35 39 -6 126 -6 127 -32 28 c-48 40 -219 141 -281 165 -28 11
-95 36 -147 56 -52 20 -132 56 -178 80 l-83 44 -15 -32z m62 -137 c10 -17 -13
-36 -27 -22 -12 12 -4 33 11 33 5 0 12 -5 16 -11z m114 -3 c0 -8 -5 -18 -11
-22 -14 -8 -33 11 -25 25 10 16 36 13 36 -3z m98 -43 c-4 -22 -22 -20 -26 1
-2 10 3 16 13 16 10 0 15 -7 13 -17z m102 -38 c0 -8 -7 -15 -15 -15 -8 0 -15
7 -15 15 0 8 7 15 15 15 8 0 15 -7 15 -15z m98 -58 c2 -10 -3 -17 -12 -17 -18
0 -29 16 -21 31 9 14 29 6 33 -14z m96 -52 c3 -9 -1 -18 -10 -22 -19 -7 -28 2
-21 22 8 19 23 19 31 0z m80 -76 c-8 -14 -34 -11 -34 4 0 8 3 17 7 20 9 9 34
-13 27 -24z m-901 -42 c-3 -23 0 -37 11 -46 21 -18 20 -29 -10 -96 -34 -79
-21 -110 15 -35 14 30 30 61 35 68 5 9 23 -12 55 -65 26 -43 74 -114 105 -158
72 -99 81 -116 95 -183 13 -64 13 -62 2 -62 -10 0 -17 19 -40 105 -13 49 -20
61 -38 63 -18 3 -23 10 -23 35 0 45 -17 16 -25 -43 -5 -37 -1 -55 21 -100 42
-88 54 -129 54 -191 0 -76 -17 -78 -64 -5 -50 79 -111 115 -161 96 -30 -11
-45 -40 -59 -109 -13 -63 -33 -78 -43 -31 -3 17 -12 34 -19 37 -8 3 -14 16
-14 28 0 29 -20 37 -43 17 -21 -19 -27 -14 -34 29 -2 18 -13 55 -24 81 -10 27
-19 69 -19 93 0 66 -40 106 -70 70 -10 -13 -10 -19 4 -33 22 -25 20 -35 -4
-27 -27 8 -25 -1 7 -47 18 -27 28 -56 31 -94 l5 -55 -31 30 c-41 42 -94 38
-129 -8 -21 -27 -16 -134 7 -164 11 -14 20 -28 20 -30 0 -3 -9 -5 -20 -4 -18
1 -22 5 -19 23 0 4 -4 10 -10 14 -6 3 -14 23 -16 44 -3 21 -8 42 -11 47 -3 5
-1 9 5 9 5 0 8 11 7 25 -4 33 -16 45 -16 16 0 -14 -7 -25 -19 -28 -15 -4 -17
-10 -11 -39 7 -31 6 -33 -11 -23 -24 12 -25 73 -4 155 17 67 26 79 74 101 47
21 48 23 32 32 -11 7 -9 15 9 39 24 33 20 52 -11 52 -20 0 -97 -72 -132 -124
-11 -15 -22 -25 -25 -22 -3 4 -5 50 -5 104 l1 97 83 60 c104 74 230 151 374
227 61 31 111 58 112 58 1 0 -1 -15 -4 -33z m962 -17 c0 -7 -6 -15 -12 -17 -8
-3 -13 4 -13 17 0 13 5 20 13 18 6 -3 12 -11 12 -18z m700 -217 c11 -7 19 -16
18 -18 -6 -12 -2 -26 5 -21 5 3 18 -5 28 -17 11 -12 43 -33 72 -47 28 -13 54
-30 56 -36 3 -7 -15 -46 -40 -88 -24 -41 -44 -87 -44 -101 0 -28 -4 -29 -48
-14 -31 11 -48 5 -112 -38 -14 -9 -19 -11 -13 -3 10 11 10 17 0 29 -8 10 -8
12 -1 8 20 -11 25 65 6 81 -13 10 -13 12 -1 13 8 0 4 4 -8 9 -13 5 -23 14 -23
20 0 6 3 9 8 6 4 -2 7 47 7 110 0 91 3 117 15 124 17 11 45 4 75 -17z m815
-185 c62 -51 118 -102 124 -113 6 -11 33 -52 60 -92 44 -65 48 -75 38 -98 -12
-27 -32 -34 -32 -11 0 15 -31 17 -41 3 -3 -5 -9 10 -13 34 -9 57 -61 109 -109
109 -40 0 -84 -31 -89 -63 -4 -29 -38 -36 -45 -9 -3 12 -11 23 -18 26 -10 3
-13 40 -14 146 -2 134 1 160 17 160 4 0 59 -42 122 -92z m-3116 -6 c14 -31 16
-56 12 -133 -7 -124 -7 -144 0 -210 4 -42 2 -65 -10 -87 -19 -36 -46 -33 -46
5 0 29 -14 59 -43 91 -31 33 -98 31 -126 -4 -12 -15 -21 -34 -21 -43 -1 -14
-2 -14 -11 2 -6 9 -9 25 -9 35 3 26 -11 62 -24 62 -7 0 -18 -6 -25 -12 -7 -7
-3 7 9 30 12 24 19 50 17 57 -3 7 20 37 51 68 67 65 194 176 203 177 3 0 14
-17 23 -38z m2168 -104 c-7 -7 -12 -21 -12 -32 0 -10 -3 -17 -6 -13 -10 10 5
57 18 57 9 0 9 -3 0 -12z m-12 -103 c-9 -11 -10 -14 -10 -52 0 -35 -10 -24
-15 17 -5 40 12 80 26 59 4 -7 4 -18 -1 -24z m-1163 -67 c2 -18 0 -20 -7 -8
-12 18 -13 30 -2 30 4 0 9 -10 9 -22z m0 -50 c-3 -8 -6 -5 -6 6 -1 11 2 17 5
13 3 -3 4 -12 1 -19z m-1237 -107 c0 -10 3 -33 6 -50 5 -24 3 -31 -10 -31 -13
0 -16 11 -16 50 0 28 5 50 10 50 6 0 10 -8 10 -19z"/>
<path d="M2324 5945 c-3 -8 -4 -20 -2 -27 3 -7 7 -1 10 15 6 29 1 36 -8 12z"/>
<path d="M6155 5860 c-13 -6 -15 -9 -5 -9 8 0 22 4 30 9 18 12 2 12 -25 0z"/>
<path d="M633 5762 c0 -28 4 -52 9 -52 4 0 8 -22 8 -49 0 -28 5 -53 10 -56 6
-3 10 -28 10 -56 0 -27 5 -49 10 -49 6 0 10 -18 10 -39 0 -22 5 -43 10 -46 6
-3 10 -16 10 -28 0 -13 15 -86 34 -162 19 -77 42 -174 50 -215 15 -72 118
-406 137 -442 5 -10 9 -27 9 -37 0 -11 5 -23 10 -26 6 -3 10 -15 10 -26 0 -10
4 -27 10 -37 5 -9 19 -46 31 -82 12 -36 25 -69 30 -75 5 -5 9 -16 9 -25 0 -9
9 -33 20 -55 11 -22 20 -45 20 -52 0 -7 5 -13 10 -13 6 0 10 -9 10 -21 0 -11
13 -48 29 -82 16 -34 43 -92 60 -129 17 -37 31 -72 31 -77 0 -6 5 -11 10 -11
6 0 10 -9 10 -20 0 -11 5 -20 10 -20 6 0 10 -9 10 -20 0 -11 5 -20 10 -20 6 0
10 -6 10 -14 0 -24 155 -317 172 -324 4 -2 8 -11 8 -19 0 -8 14 -35 30 -60 16
-24 30 -48 30 -54 0 -5 5 -9 10 -9 6 0 10 -8 10 -18 0 -11 9 -27 20 -37 11
-10 20 -22 20 -27 0 -9 27 -52 106 -172 10 -16 24 -36 29 -44 6 -9 22 -30 37
-47 16 -16 28 -35 28 -41 0 -6 9 -19 20 -29 11 -10 20 -23 20 -30 0 -6 14 -24
30 -40 17 -16 30 -33 30 -38 0 -10 34 -54 98 -126 23 -26 42 -52 42 -57 1 -5
23 -31 50 -59 28 -27 50 -54 50 -59 0 -5 35 -44 77 -87 42 -43 85 -91 94 -106
24 -36 339 -343 352 -343 6 0 39 -26 73 -57 100 -92 161 -141 199 -159 20 -9
34 -19 31 -21 -7 -7 49 -53 63 -53 12 0 29 -12 61 -44 11 -11 23 -16 27 -13 3
4 1 7 -5 7 -7 0 -12 6 -12 13 0 7 -14 21 -31 31 -17 10 -27 21 -21 25 10 6 -2
51 -13 51 -4 0 -3 -4 0 -10 3 -5 3 -10 -2 -10 -4 0 -15 15 -22 32 -8 18 -30
60 -50 93 -34 59 -87 152 -119 210 -9 17 -20 32 -23 35 -6 6 -87 146 -130 227
-16 29 -44 78 -64 109 -20 30 -46 76 -59 102 -12 26 -33 65 -46 87 -47 81 -81
155 -76 164 4 5 1 13 -5 17 -8 5 -9 3 -4 -6 5 -9 4 -11 -4 -6 -9 6 -9 11 1 24
7 9 8 13 2 9 -7 -4 -15 3 -19 16 -4 12 -8 25 -10 30 -1 4 -3 12 -4 18 0 5 -6
7 -13 3 -7 -4 -8 -3 -4 5 5 7 29 -12 69 -56 187 -206 469 -469 489 -457 6 4 8
3 4 -4 -3 -5 11 -24 31 -40 l38 -29 30 30 30 30 -28 -7 c-15 -3 -27 -4 -27 -1
0 14 31 64 42 68 8 3 5 6 -6 6 -14 1 -16 4 -8 14 8 10 5 12 -14 12 -14 -1 -32
-11 -40 -23 -19 -27 -34 -28 -34 -2 0 12 7 20 18 20 14 0 15 2 2 10 -12 8 -13
11 -1 19 10 7 10 10 1 13 -9 3 -8 9 5 21 16 17 16 18 -6 13 -13 -2 -32 -7 -41
-11 -10 -4 -18 -4 -18 0 0 11 27 34 34 28 3 -4 6 -1 6 5 0 7 -5 12 -12 12 -9
0 -9 3 0 12 22 22 13 29 -10 8 -24 -22 -38 -26 -38 -10 0 17 -28 11 -33 -7 -4
-16 -5 -16 -6 -1 -2 28 18 68 34 68 8 0 15 4 15 10 0 5 -7 7 -15 4 -18 -7 -20
7 -2 26 10 12 9 12 -4 2 -9 -7 -22 -33 -29 -58 -9 -31 -16 -41 -21 -32 -7 10
-9 9 -9 -4 0 -10 -4 -18 -10 -18 -18 0 -10 27 15 52 16 16 23 32 19 42 -3 9
-1 16 5 16 8 0 8 5 0 18 -11 18 -13 17 -38 -8 -29 -29 -71 -60 -83 -60 -5 0
-8 10 -8 23 0 18 2 19 10 7 8 -13 13 -11 32 9 l23 23 -30 -6 c-24 -5 -26 -4
-12 4 9 6 17 19 18 28 0 15 1 15 8 -1 6 -17 8 -17 20 -3 10 12 11 16 1 16 -10
0 -10 3 0 15 7 8 17 12 23 8 6 -3 7 -1 3 5 -5 9 -13 9 -27 2 -10 -6 -19 -9
-20 -8 -8 29 -5 38 12 38 19 0 25 11 13 23 -12 11 -42 -12 -48 -38 -4 -16 -13
-25 -26 -25 -11 0 -20 4 -20 9 0 5 6 8 13 7 6 0 12 4 12 9 0 6 -13 9 -30 9
-16 -1 -24 0 -17 3 6 3 10 9 6 14 -3 5 3 9 13 9 22 0 63 27 63 41 0 17 -31 9
-67 -18 -37 -29 -73 -40 -73 -23 0 6 7 10 16 10 8 0 12 4 9 10 -3 6 3 10 14
10 12 0 21 5 21 11 0 5 -4 7 -10 4 -5 -3 -10 -1 -10 4 0 6 9 11 20 11 11 0 20
7 20 15 0 8 5 15 11 15 6 0 3 7 -6 16 -11 12 -27 15 -55 11 -30 -4 -37 -2 -33
9 6 17 -9 18 -26 2 -11 -11 -13 -10 -9 1 7 25 37 38 48 21 6 -10 10 -11 10 -2
0 6 10 12 22 12 30 0 19 7 -22 14 -19 2 -40 0 -46 -5 -17 -14 -64 -21 -64 -10
0 12 27 22 43 15 8 -3 13 4 14 17 1 12 8 26 15 31 8 5 -2 6 -24 2 -31 -5 -38
-3 -38 10 0 10 4 15 8 12 4 -2 14 -1 21 3 9 6 4 8 -14 8 -15 0 -31 -8 -38 -18
-7 -11 -22 -18 -37 -18 -24 2 -24 2 -2 6 12 2 20 8 17 13 -3 5 7 20 22 34 27
25 27 26 9 43 -17 17 -18 17 -11 -7 4 -17 3 -21 -3 -11 -5 7 -15 10 -21 7 -7
-5 -10 2 -9 18 1 15 10 29 21 32 10 3 17 8 14 10 -2 3 -16 0 -31 -5 -22 -9
-26 -8 -27 7 -1 9 -1 21 1 27 1 5 -7 2 -17 -6 -26 -23 -47 -34 -39 -21 12 20
-17 25 -32 6 -14 -18 -14 -18 -8 -1 3 10 6 21 6 23 0 2 16 4 35 4 19 0 35 4
35 10 0 5 -7 7 -15 4 -20 -8 -41 6 -25 16 8 5 2 10 -16 14 l-28 7 42 19 c54
24 54 33 1 15 -52 -19 -54 -19 -35 1 9 8 16 20 16 25 0 15 -57 10 -74 -6 -8
-8 -17 -15 -20 -15 -3 0 -3 7 0 15 4 8 12 15 19 15 20 0 26 28 7 36 -22 9 -29
11 -47 13 -24 2 -17 20 9 27 28 7 41 40 19 48 -23 9 -26 7 -13 -9 7 -8 11 -15
9 -16 -2 0 -17 -3 -34 -5 -36 -6 -43 -13 -26 -23 9 -6 7 -10 -8 -14 -15 -4
-21 0 -21 11 0 24 16 46 28 38 5 -3 15 1 22 9 11 13 8 15 -14 15 -16 0 -26 5
-26 15 0 8 5 15 10 15 6 0 10 7 10 16 0 8 4 12 10 9 6 -3 7 1 3 10 -4 12 -8
13 -13 4 -5 -6 -15 -9 -25 -6 -9 4 -13 11 -10 17 4 6 -5 10 -19 10 -19 0 -26
5 -26 20 0 13 -5 18 -15 14 -8 -4 -15 -2 -15 4 0 14 24 22 40 12 7 -4 10 -12
6 -18 -3 -6 -2 -14 4 -17 6 -4 10 -3 9 2 -1 4 0 10 1 13 12 33 7 39 -33 35
-23 -2 -48 -5 -56 -7 -7 -1 -16 3 -18 10 -3 7 5 12 21 12 22 0 26 4 26 30 0
24 -4 30 -21 30 -19 0 -20 2 -8 16 12 15 11 16 -11 10 -14 -4 -32 -15 -40 -24
-9 -10 -20 -18 -25 -19 -6 -1 -19 -4 -30 -8 -20 -7 -20 -6 -1 9 11 9 26 16 33
16 7 0 13 5 13 11 0 6 -6 9 -14 6 -10 -4 -14 0 -13 13 1 12 5 16 12 10 12 -10
65 -1 65 12 0 5 -4 7 -9 4 -11 -7 -41 3 -41 14 0 5 6 10 13 13 6 2 2 2 -10 0
-27 -4 -28 0 -7 21 24 24 1 19 -40 -9 -39 -27 -47 -21 -17 12 11 12 17 23 15
26 -3 3 4 8 17 12 16 5 18 9 8 15 -7 5 -21 4 -32 -2 -28 -15 -30 -4 -6 38 l23
39 -25 -22 c-14 -13 -30 -23 -36 -23 -15 0 -23 38 -9 45 12 5 -22 0 -64 -11
l-25 -7 26 21 c14 11 38 24 52 27 15 4 27 11 27 15 0 13 -63 21 -71 9 -3 -6
-15 -9 -24 -7 -17 3 -17 5 -3 18 8 8 13 21 10 28 -5 15 -1 15 32 2 21 -7 26
-6 26 5 0 8 -3 14 -7 14 -5 -1 -10 -1 -13 1 -22 8 -50 8 -50 0 0 -6 -4 -10
-10 -10 -13 0 0 32 19 47 13 10 12 11 -9 6 -23 -6 -24 -5 -10 13 8 10 20 22
25 27 6 4 -6 7 -25 7 -75 -1 -85 0 -75 8 14 10 18 42 5 42 -6 0 -13 -7 -16
-15 -10 -25 -22 -17 -16 11 3 19 9 24 23 21 10 -3 25 0 34 7 14 10 11 12 -17
10 -18 -1 -45 -6 -60 -12 -24 -10 -28 -9 -28 7 0 12 7 17 21 17 12 -1 24 5 27
13 3 10 -2 11 -19 6 l-24 -8 25 21 c14 12 19 21 12 22 -7 0 -11 4 -7 9 3 6 -6
6 -25 1 -17 -5 -30 -5 -30 0 0 5 10 11 23 13 l22 4 -22 2 c-27 1 -31 21 -5 22
13 0 12 3 -6 12 -19 8 -25 8 -33 -4 -5 -8 -9 -9 -9 -2 0 11 8 20 45 52 9 7 14
16 10 19 -3 4 -9 2 -13 -3 -4 -6 -19 -16 -34 -22 -24 -11 -28 -10 -28 2 0 8 7
15 15 15 8 0 15 5 15 11 0 5 -4 8 -9 4 -5 -3 -12 -1 -16 5 -3 6 4 11 17 11 17
1 18 3 6 6 -10 2 -18 9 -18 14 0 6 -10 7 -22 4 -23 -7 -23 -7 -3 8 14 11 24
12 33 5 9 -8 11 -7 6 6 -5 13 -14 15 -37 10 -29 -6 -30 -6 -13 17 19 28 21 50
4 46 -7 -1 -12 4 -11 11 2 6 -7 12 -20 13 -12 0 -16 3 -9 6 20 8 13 25 -8 18
-22 -7 -26 5 -9 22 15 15 2 51 -22 58 -20 7 -20 7 3 32 22 25 22 25 1 14 -31
-16 -53 -14 -30 3 17 13 17 14 0 21 -10 5 -21 7 -25 7 -12 -3 -10 16 2 23 6 4
8 11 5 16 -4 5 -1 9 5 9 6 0 8 5 5 10 -3 6 -1 10 6 10 7 0 10 3 7 6 -4 3 -16
0 -28 -6 -24 -13 -40 -6 -23 11 16 16 -5 59 -23 52 -10 -4 -12 0 -8 11 3 8 9
14 12 13 4 -1 7 3 7 8 0 6 -11 10 -23 9 -19 0 -21 2 -10 10 21 16 11 48 -13
41 -11 -4 -19 -2 -19 4 0 6 6 11 14 11 17 0 29 27 14 32 -5 2 -11 18 -11 35
-1 17 -5 29 -8 27 -11 -6 -31 24 -24 36 3 5 -1 10 -10 10 -13 0 -16 6 -11 24
4 15 0 28 -10 37 -8 7 -13 21 -10 32 3 13 0 17 -9 13 -10 -3 -15 5 -17 30 -2
19 -7 33 -11 32 -12 -4 -28 29 -33 69 -3 20 -11 41 -18 47 -7 6 -19 38 -26 70
-23 101 -23 42 0 -72 44 -215 114 -473 191 -706 44 -131 84 -247 90 -257 7
-13 7 -25 0 -37 -8 -14 -11 -14 -12 -2 -1 8 -3 22 -4 30 -1 8 -8 31 -15 49
-11 30 -14 32 -20 16 -5 -15 -10 -7 -19 32 -7 28 -19 54 -27 57 -8 3 -14 12
-14 19 0 8 -9 26 -21 41 -11 14 -21 34 -22 45 0 11 -5 17 -9 15 -4 -3 -8 3 -8
13 0 19 -65 211 -74 221 -3 3 -6 18 -6 34 0 19 -4 27 -11 22 -8 -4 -9 1 -4 16
5 17 4 21 -5 15 -9 -5 -11 -4 -6 3 8 14 -41 101 -60 109 -8 3 -12 9 -9 13 3 5
-42 57 -100 117 -57 59 -110 120 -116 135 -6 15 -15 25 -20 22 -5 -3 -9 1 -9
8 0 7 -13 32 -28 55 -15 23 -47 78 -72 122 -25 44 -49 81 -53 81 -5 0 -5 10
-2 21 5 15 4 19 -4 15 -6 -4 -11 -2 -11 4 0 6 -9 23 -21 39 -11 15 -26 45 -34
67 l-13 39 1 -53z m465 -726 c26 -13 42 -37 56 -79 3 -10 -1 -34 -9 -54 -15
-35 -16 -36 -29 -17 -20 30 -86 150 -86 157 0 12 40 7 68 -7z m-13 -184 c-7
-7 -5 -9 -58 83 -25 43 -43 83 -40 88 3 5 27 -30 54 -78 27 -49 47 -90 44 -93z
m-76 73 c23 -38 41 -73 41 -77 0 -17 -39 -6 -63 17 -37 38 -50 76 -37 110 6
15 12 26 14 24 3 -2 23 -36 45 -74z m508 -352 c3 -7 -3 -9 -16 -6 -12 3 -21
10 -21 15 0 13 32 6 37 -9z m33 -93 c0 -5 -2 -10 -4 -10 -3 0 -8 5 -11 10 -3
6 -1 10 4 10 6 0 11 -4 11 -10z m20 -29 c0 -5 -7 -12 -16 -15 -24 -9 -28 -7
-14 9 14 17 30 20 30 6z m-93 -143 c-3 -7 -5 -2 -5 12 0 14 2 19 5 13 2 -7 2
-19 0 -25z m33 -53 c0 -5 -5 -3 -10 5 -5 8 -10 20 -10 25 0 6 5 3 10 -5 5 -8
10 -19 10 -25z m296 -218 c4 -4 2 -7 -4 -7 -5 0 -18 -3 -26 -6 -12 -4 -15 -2
-10 9 5 15 27 17 40 4z m-56 -7 c0 -5 -8 -10 -17 -10 -15 0 -16 2 -3 10 19 12
20 12 20 0z m57 -146 c-3 -3 -12 -4 -19 -1 -8 3 -5 6 6 6 11 1 17 -2 13 -5z
m93 -54 c0 -5 -7 -10 -16 -10 -8 0 -12 5 -9 10 3 6 10 10 16 10 5 0 9 -4 9
-10z m-3 -26 c-3 -3 -12 -4 -19 -1 -8 3 -5 6 6 6 11 1 17 -2 13 -5z m33 -24
c0 -5 -5 -10 -11 -10 -5 0 -7 5 -4 10 3 6 8 10 11 10 2 0 4 -4 4 -10z m-35
-20 c-3 -5 -14 -10 -23 -10 -15 0 -15 2 -2 10 20 13 33 13 25 0z m50 -90 c3
-5 1 -10 -4 -10 -6 0 -11 5 -11 10 0 6 2 10 4 10 3 0 8 -4 11 -10z m29 -24
c-6 -16 -24 -23 -24 -8 0 10 22 33 27 28 2 -2 1 -11 -3 -20z m126 -46 c0 -5
-17 -10 -37 -9 -31 0 -34 2 -18 9 28 12 55 12 55 0z m-63 -26 c-3 -3 -12 -4
-19 -1 -8 3 -5 6 6 6 11 1 17 -2 13 -5z m3 -38 c0 -2 -11 -6 -25 -8 -13 -3
-22 -1 -19 3 5 9 44 13 44 5z m25 -36 c-3 -5 -14 -10 -23 -10 -15 0 -15 2 -2
10 20 13 33 13 25 0z m16 -23 c-10 -9 -11 -8 -5 6 3 10 9 15 12 12 3 -3 0 -11
-7 -18z m39 19 c0 -3 -4 -8 -10 -11 -5 -3 -10 -1 -10 4 0 6 5 11 10 11 6 0 10
-2 10 -4z m15 -56 c3 -5 1 -10 -4 -10 -6 0 -11 5 -11 10 0 6 2 10 4 10 3 0 8
-4 11 -10z m52 -25 c-13 -26 -27 -34 -23 -12 2 18 16 37 26 37 4 0 3 -11 -3
-25z m-43 -14 c3 -5 -5 -11 -19 -13 -26 -5 -35 6 -12 15 19 8 25 8 31 -2z m33
-96 c-4 -8 -12 -15 -19 -14 -10 0 -10 2 0 6 6 2 12 12 12 21 0 8 3 13 6 9 4
-3 4 -13 1 -22z m63 -37 c-11 -12 -20 -28 -20 -37 0 -18 -13 -6 -16 16 -3 18
22 42 44 43 8 0 5 -8 -8 -22z m55 -78 c-3 -5 -11 -10 -16 -10 -6 0 -7 5 -4 10
3 6 11 10 16 10 6 0 7 -4 4 -10z m62 -32 c-3 -8 -6 -5 -6 6 -1 11 2 17 5 13 3
-3 4 -12 1 -19z m-77 -3 c0 -8 -2 -15 -4 -15 -2 0 -6 7 -10 15 -3 8 -1 15 4
15 6 0 10 -7 10 -15z m60 11 c0 -11 -19 -15 -25 -6 -3 5 1 10 9 10 9 0 16 -2
16 -4z m30 -86 c0 -5 -2 -10 -4 -10 -3 0 -8 5 -11 10 -3 6 -1 10 4 10 6 0 11
-4 11 -10z m31 -13 c-10 -9 -11 -8 -5 6 3 10 9 15 12 12 3 -3 0 -11 -7 -18z
m54 -15 c-6 -28 -6 -28 -14 -7 -9 22 -4 38 9 30 4 -3 7 -13 5 -23z m-29 -61
c-3 -5 -16 -11 -28 -14 -22 -6 -22 -5 -4 8 22 17 40 20 32 6z m144 -52 c0 -6
-6 -9 -14 -6 -7 3 -19 0 -25 -6 -6 -6 -14 -7 -18 -3 -9 9 16 26 40 26 9 0 17
-5 17 -11z m-399 -68 c23 -23 29 -38 29 -71 0 -23 -5 -51 -11 -62 -10 -18 -16
-12 -60 66 -27 47 -49 88 -49 91 0 3 14 5 31 5 20 0 40 -10 60 -29z m-77 -77
c26 -47 45 -88 42 -91 -3 -4 -7 -4 -9 -2 -11 15 -97 170 -97 174 0 20 22 -7
64 -81z m437 68 c-14 -26 -41 -48 -41 -33 0 6 5 11 10 11 6 0 10 6 10 14 0 12
9 20 28 25 1 1 -2 -7 -7 -17z m-501 -42 c11 -7 71 -122 67 -127 -19 -18 -97
78 -97 120 0 27 13 44 19 25 2 -7 7 -15 11 -18z m643 16 c13 5 16 2 11 -10 -7
-18 -34 -22 -34 -6 0 7 -6 7 -20 0 -11 -6 -20 -8 -20 -4 0 3 -7 1 -15 -6 -9
-8 -15 -8 -15 -2 0 11 38 28 53 24 4 -1 7 4 7 11 0 9 2 9 8 -1 5 -7 16 -10 25
-6z m-116 -98 c-3 -7 -5 -2 -5 12 0 14 2 19 5 13 2 -7 2 -19 0 -25z m33 11
c-7 -11 -14 -19 -16 -16 -7 7 7 37 17 37 6 0 5 -9 -1 -21z m47 -45 c-3 -3 -12
-4 -19 -1 -8 3 -5 6 6 6 11 1 17 -2 13 -5z m93 -38 c0 -2 -9 -6 -20 -9 -11 -3
-20 -1 -20 4 0 5 9 9 20 9 11 0 20 -2 20 -4z m-73 -41 c-7 -13 -14 -20 -15
-14 -5 14 6 39 17 39 5 0 4 -11 -2 -25z m53 1 c0 -3 -4 -8 -10 -11 -5 -3 -10
-1 -10 4 0 6 5 11 10 11 6 0 10 -2 10 -4z m105 -36 c3 -5 -1 -10 -10 -10 -9 0
-13 5 -10 10 3 6 8 10 10 10 2 0 7 -4 10 -10z m-31 -45 c-3 -7 -12 -11 -20 -8
-11 4 -12 9 -3 19 14 17 30 9 23 -11z m116 -64 c0 -5 -7 -14 -15 -21 -12 -10
-15 -10 -15 2 0 8 3 18 7 21 9 10 23 9 23 -2z m-1 -68 c-2 -25 -2 -25 -6 -5
-4 19 -7 21 -19 11 -9 -7 -14 -8 -14 -1 0 10 15 19 33 21 4 1 6 -11 6 -26z
m36 18 c3 -5 1 -12 -5 -16 -5 -3 -10 1 -10 9 0 18 6 21 15 7z m75 -58 c-2 -32
-60 -82 -60 -52 0 5 7 9 15 9 8 0 17 11 21 25 5 22 25 36 24 18z"/>
<path d="M6334 5026 c-29 -29 -34 -41 -34 -81 0 -58 27 -99 75 -115 47 -15 89
-5 125 32 25 25 30 37 30 80 0 45 -4 54 -36 84 -29 28 -43 34 -81 34 -38 0
-50 -5 -79 -34z m129 13 c37 -21 56 -52 57 -95 0 -22 -6 -48 -13 -58 -12 -17
-18 -11 -60 61 -26 44 -47 85 -47 91 0 15 35 15 63 1z m-29 -141 c15 -27 24
-48 18 -48 -11 0 -88 129 -97 163 -6 22 28 -28 79 -115z m-38 -56 c-62 -7
-109 87 -75 149 9 18 15 12 58 -63 l48 -83 -31 -3z"/>
<path d="M2365 4991 c-19 -8 16 -12 137 -13 27 0 38 -5 41 -19 5 -17 -1 -19
-66 -19 -177 -1 -331 -77 -378 -188 -8 -17 -18 -30 -24 -29 -11 4 -12 61 0 92
6 17 4 17 -14 -4 -54 -61 -65 -220 -22 -312 61 -128 172 -180 436 -204 120
-11 259 -36 288 -53 32 -19 41 -45 35 -101 -3 -31 -1 -37 9 -29 7 5 15 18 18
29 4 11 15 19 30 19 22 0 22 -2 11 -38 -24 -81 -86 -136 -186 -166 -61 -18
-223 -21 -285 -6 -88 22 -115 34 -115 48 0 8 6 12 14 9 15 -6 98 -16 171 -21
22 -1 51 1 65 5 19 5 14 7 -23 8 -165 3 -378 102 -390 181 -6 39 -25 34 -45
-12 -93 -207 -105 -240 -92 -248 7 -5 21 -3 31 3 14 8 32 4 86 -20 145 -66
271 -93 428 -93 260 0 421 77 491 236 34 77 34 191 0 268 -24 54 -78 116 -120
138 -11 6 -1 -7 24 -29 43 -39 44 -42 28 -60 -17 -18 -17 -22 2 -71 11 -29 20
-57 20 -62 0 -6 -25 -10 -55 -10 -39 0 -55 4 -55 13 0 7 -15 27 -33 45 -42 40
-105 56 -327 82 -96 11 -188 23 -205 26 -52 11 -129 50 -157 80 -27 30 -53 83
-40 85 4 0 70 1 147 1 132 1 137 2 91 14 -85 22 -117 77 -85 146 36 79 209
118 372 83 123 -26 267 -110 267 -156 0 -47 31 -9 88 109 75 152 81 185 26
125 -14 -16 -24 -21 -21 -13 4 17 -75 53 -223 101 -84 28 -112 32 -235 35 -77
2 -149 0 -160 -5z m-278 -954 c-9 -20 -28 -42 -46 -51 l-30 -16 14 37 c7 21
23 63 34 93 12 30 22 57 22 60 1 3 6 -16 11 -41 7 -35 6 -54 -5 -82z"/>
<path d="M4920 4991 c-19 -7 -9 -10 45 -11 39 -1 74 -2 79 -1 13 3 36 -20 30
-30 -3 -5 -31 -9 -62 -9 -116 -1 -267 -48 -369 -115 -47 -31 -55 -33 -83 -24
-17 6 -29 14 -26 17 8 7 -14 32 -28 32 -6 0 -17 -4 -24 -9 -11 -6 8 -36 75
-122 94 -120 120 -138 115 -81 -5 47 17 73 91 110 85 41 143 54 247 54 108 0
162 -15 208 -57 36 -32 37 -36 36 -98 -1 -65 -1 -65 19 -46 34 31 50 25 43
-17 -6 -30 -5 -35 11 -34 46 5 46 -2 1 -44 -33 -30 -48 -52 -48 -69 0 -39 14
-40 63 -7 129 87 169 195 127 342 -24 84 -121 172 -223 204 -59 18 -287 28
-327 15z"/>
<path d="M3210 4966 c0 -9 6 -16 14 -16 7 0 19 -7 26 -15 12 -15 14 -41 20
-330 2 -111 4 -124 12 -86 9 41 11 43 40 37 17 -3 50 -6 74 -6 43 0 44 -1 44
-32 0 -51 13 -65 44 -48 l26 13 0 154 0 153 237 0 c218 0 240 -2 279 -20 62
-31 89 -102 70 -185 l-7 -30 21 24 c12 14 30 25 40 26 15 1 18 -3 13 -27 l-5
-28 55 0 56 0 -11 -32 c-14 -42 -63 -94 -111 -119 -55 -29 -170 -39 -433 -39
-177 0 -234 -3 -249 -14 -13 -9 -20 -30 -23 -70 l-4 -56 -51 0 c-35 0 -53 -5
-62 -17 -11 -15 -13 -15 -24 5 -6 12 -15 54 -20 94 -7 58 -9 28 -10 -148 0
-122 -4 -235 -7 -252 -6 -28 -4 -30 17 -26 23 5 23 5 5 -10 -11 -9 -33 -16
-49 -16 -18 0 -27 -4 -25 -12 6 -18 337 -24 352 -7 8 8 7 13 -3 17 -7 2 -22
13 -32 23 -17 17 -19 37 -19 224 l0 205 279 0 c250 0 285 2 343 20 238 73 305
409 115 576 -89 79 -86 78 -589 82 -400 3 -448 1 -448 -12z m701 -23 c1 -16 2
-16 6 -1 4 15 15 17 66 9 4 0 7 -8 7 -16 0 -13 -44 -15 -333 -15 -316 0 -335
1 -351 19 -17 19 -12 19 293 20 292 2 311 1 312 -16z"/>
<path d="M1430 4809 c0 -5 5 -7 10 -4 6 3 10 8 10 11 0 2 -4 4 -10 4 -5 0 -10
-5 -10 -11z"/>
<path d="M4863 4563 c-17 -6 -19 -283 -3 -283 6 0 22 12 35 28 23 26 25 27
132 26 90 0 117 -4 160 -23 75 -33 97 -72 90 -157 -5 -64 -4 -64 14 -43 10 12
21 29 24 39 3 9 12 17 21 17 13 0 15 -8 10 -39 -11 -67 -48 -113 -121 -149
-59 -29 -78 -33 -172 -37 -102 -5 -238 11 -249 29 -2 5 -12 5 -21 2 -11 -4
-14 -3 -9 5 4 8 2 10 -7 6 -18 -6 -32 12 -17 21 6 3 34 1 63 -5 60 -12 204
-17 214 -7 3 4 -9 7 -28 8 -19 0 -43 2 -54 4 -11 2 -38 6 -60 10 -64 9 -166
46 -218 78 -49 30 -67 53 -76 100 -3 15 -10 28 -16 29 -5 0 -39 -69 -76 -154
-53 -123 -63 -155 -52 -161 9 -6 21 -3 32 7 24 22 43 20 109 -10 112 -52 139
-62 212 -78 309 -71 611 16 702 202 30 63 37 185 14 247 -18 45 -71 107 -109
126 -13 7 -8 -1 12 -18 27 -23 32 -34 27 -51 -4 -12 -12 -20 -17 -16 -6 3 -3
-11 5 -31 25 -59 22 -65 -32 -65 -46 0 -47 1 -70 48 -42 89 -128 130 -294 139
l-97 6 -28 -30 c-15 -16 -33 -38 -40 -48 -10 -16 -12 -2 -10 80 2 98 2 100 25
97 23 -3 23 -3 6 25 -10 15 -18 29 -18 29 -1 1 -7 -1 -13 -3z m-297 -390 c-2
-10 -1 -36 3 -58 9 -52 -12 -103 -56 -132 -18 -12 -33 -20 -33 -18 0 8 40 110
49 126 5 9 15 35 21 58 6 22 13 41 16 41 3 0 3 -8 0 -17z"/>
<path d="M2423 4543 c15 -2 37 -2 50 0 12 2 0 4 -28 4 -27 0 -38 -2 -22 -4z"/>
<path d="M592 4370 c-24 -27 -71 -65 -105 -86 -58 -35 -69 -38 -162 -43 l-100
-6 1 -45 c1 -54 25 -150 38 -150 29 0 -68 -53 -196 -106 -67 -28 -68 -28 -63
-64 66 -534 95 -701 146 -851 16 -48 29 -95 29 -106 0 -12 7 -38 16 -59 9 -22
20 -52 25 -69 14 -57 82 -239 100 -272 11 -19 19 -40 19 -47 0 -8 8 -31 18
-53 72 -149 126 -255 150 -299 28 -47 150 -231 173 -257 15 -18 112 -147 129
-171 32 -45 177 -216 267 -313 106 -116 113 -119 197 -79 28 14 67 27 86 30
19 3 58 10 85 15 28 6 75 15 105 21 92 19 208 31 338 36 144 6 144 7 80 99
-107 155 -178 337 -178 459 l0 71 -45 -51 c-48 -56 -109 -87 -188 -98 -46 -5
-50 -4 -92 35 -25 23 -45 46 -45 51 0 6 -12 25 -27 43 -55 65 -119 153 -132
180 -5 12 -16 27 -25 34 -9 7 -16 18 -16 23 0 9 -39 68 -51 78 -4 3 -28 50
-54 105 -105 221 -137 291 -145 310 -4 11 -17 40 -29 63 -11 24 -21 48 -21 53
0 5 -14 37 -30 71 -16 34 -30 65 -30 70 0 4 -8 27 -19 51 -10 23 -24 58 -31
77 -7 19 -16 45 -21 58 -23 58 -27 70 -38 107 -6 22 -20 72 -30 110 -36 124
-52 198 -65 291 l-12 91 35 13 c92 33 201 92 201 108 0 9 -18 40 -40 67 -22
28 -40 53 -40 57 0 4 -11 24 -25 44 -23 34 -57 102 -84 167 -6 15 -11 49 -11
74 0 53 -19 114 -35 112 -5 -1 -29 -23 -53 -49z m5 -196 c-3 -3 -12 -4 -19 -1
-8 3 -5 6 6 6 11 1 17 -2 13 -5z m-77 -887 c0 -17 37 -137 50 -158 7 -13 4
-18 -9 -22 -14 -3 -20 8 -34 62 -24 91 -26 94 -65 80 -35 -12 -35 -16 -6 -86
7 -18 11 -33 9 -33 -2 0 -10 -2 -17 -5 -11 -4 -18 9 -27 50 -13 56 -13 56 -44
49 -18 -3 -35 -8 -39 -10 -9 -6 32 -147 45 -156 8 -4 5 -9 -6 -14 -10 -3 -19
-5 -21 -3 -5 6 -56 175 -56 186 0 6 39 20 88 33 48 12 94 26 102 31 22 12 30
11 30 -4z m65 -253 c26 -27 46 -73 52 -123 6 -49 5 -49 -22 -44 -17 4 -23 8
-14 13 8 6 10 21 5 50 -9 56 -33 90 -62 90 -29 0 -32 -29 -9 -105 19 -61 14
-88 -21 -104 -59 -27 -122 55 -123 160 -1 44 0 46 25 41 18 -3 22 -8 15 -15
-28 -28 -1 -136 39 -157 18 -10 25 -9 38 4 14 14 14 20 -1 69 -20 63 -22 108
-5 125 17 17 64 15 83 -4z m92 -249 c31 -21 55 -70 63 -127 6 -46 5 -48 -17
-48 -20 0 -22 3 -14 19 13 24 -3 83 -32 117 -44 50 -135 25 -151 -42 -10 -37
27 -112 61 -127 19 -8 27 -18 25 -29 -4 -23 -7 -23 -43 5 -62 45 -90 153 -53
206 35 49 108 61 161 26z m111 -256 c-39 -11 -130 -63 -141 -81 -13 -20 16
-92 46 -113 17 -12 27 -10 81 17 34 16 69 37 79 46 16 14 19 14 27 2 6 -8 9
-17 9 -20 -1 -12 -157 -81 -182 -80 -50 0 -114 128 -85 171 7 11 47 37 88 57
66 34 76 36 88 23 11 -13 9 -17 -10 -22z m188 -296 c20 -40 25 -61 20 -87 -13
-66 -103 -113 -161 -84 -15 7 -47 44 -71 83 -42 68 -52 91 -36 82 4 -3 48 19
97 47 l90 53 17 -21 c9 -12 29 -45 44 -73z m104 -188 c16 -8 41 -31 55 -50 98
-128 -47 -275 -162 -164 -48 47 -68 107 -53 154 21 64 97 93 160 60z"/>
<path d="M837 2245 l-77 -45 32 -51 c17 -28 41 -55 54 -61 49 -22 124 26 124
79 0 15 -13 49 -28 75 l-28 48 -77 -45z"/>
<path d="M969 2001 c-34 -35 -36 -58 -9 -112 51 -99 180 -82 180 24 0 32 -7
46 -39 78 -49 50 -89 52 -132 10z"/>
<path d="M6776 4388 c-3 -13 -6 -47 -6 -77 0 -46 -9 -70 -62 -175 -36 -69 -79
-136 -100 -157 -21 -20 -35 -39 -31 -43 15 -15 180 -88 210 -93 28 -5 33 -2
37 18 13 59 15 60 10 5 -2 -32 -11 -71 -18 -85 -8 -14 -28 -96 -44 -181 -40
-199 -60 -268 -133 -464 -63 -166 -73 -190 -184 -440 -147 -329 -206 -430
-410 -701 l-88 -117 -68 4 c-74 6 -132 33 -183 87 -17 17 -33 31 -36 31 -4 0
-10 -28 -13 -62 -14 -145 -87 -313 -197 -460 -33 -44 -60 -80 -60 -81 0 -1 69
-2 153 -3 83 0 184 -6 222 -12 39 -6 97 -16 130 -21 60 -10 134 -24 190 -36
17 -4 49 -15 72 -26 71 -32 94 -26 164 38 34 32 86 87 115 123 132 160 254
319 254 329 0 6 4 11 8 11 12 0 136 173 197 272 35 58 225 446 225 460 0 9 5
20 10 23 6 3 10 15 10 25 0 11 9 35 20 55 11 20 20 45 20 56 0 11 30 108 66
217 84 249 93 288 114 482 5 47 14 119 20 160 10 68 17 124 36 275 3 28 10 54
15 60 16 16 10 22 -38 39 -63 23 -169 75 -213 104 -44 29 -46 32 -23 26 15 -4
22 8 42 75 13 44 21 87 18 95 -5 13 -24 16 -94 16 -77 0 -94 3 -149 31 -34 17
-90 56 -124 85 -33 30 -65 54 -69 54 -5 0 -11 -10 -15 -22z m476 -543 c-3 -19
-10 -25 -32 -25 -35 0 -45 -13 -58 -80 -9 -51 -8 -56 11 -70 12 -8 26 -14 30
-12 8 2 0 -37 -9 -47 -2 -3 -10 2 -17 11 -18 22 -153 135 -167 140 -7 2 -9 13
-5 28 5 21 13 25 43 27 20 1 73 13 117 26 44 14 83 25 86 26 3 0 4 -10 1 -24z
m-163 -255 c46 -10 89 -16 94 -13 6 4 8 -1 4 -11 -4 -10 -7 -22 -7 -28 0 -6
-8 -7 -17 -3 -39 16 -188 53 -195 48 -9 -5 -11 31 -2 40 3 3 14 2 23 -4 9 -5
54 -18 100 -29z m-57 -87 c10 -9 18 -27 18 -40 l0 -23 53 20 c64 24 59 25 55
-2 -2 -13 -10 -23 -18 -23 -8 -1 -34 -7 -58 -14 -36 -12 -43 -19 -52 -53 -14
-48 -8 -56 41 -64 40 -7 43 -11 33 -38 -4 -11 -11 -13 -18 -8 -21 16 -186 63
-198 56 -7 -5 -9 -2 -5 9 3 9 11 35 17 59 26 103 49 138 88 138 14 0 34 -7 44
-17z m-149 -219 c12 -4 12 -11 1 -42 -7 -20 -13 -42 -14 -48 0 -10 146 -64
176 -64 16 0 18 -9 6 -28 -6 -9 -29 -5 -97 18 -49 16 -92 30 -96 30 -4 0 -13
-20 -20 -45 -12 -42 -26 -54 -42 -38 -4 3 -3 11 2 17 12 14 62 162 64 187 1
21 1 21 20 13z m130 -295 c-4 -22 -10 -26 -40 -25 -33 1 -36 -2 -54 -49 -24
-64 -24 -80 2 -99 15 -10 19 -20 14 -35 -5 -17 -15 -9 -77 60 -38 44 -78 85
-88 91 -15 9 -16 16 -8 34 6 13 14 22 17 19 9 -5 221 21 228 29 10 10 12 3 6
-25z m-213 -174 c17 -20 15 -77 -3 -112 -30 -59 -30 -69 4 -83 17 -7 37 -13
45 -13 16 0 18 -15 5 -36 -7 -11 -13 -12 -23 -4 -7 6 -51 28 -98 48 -47 21
-87 39 -89 41 -5 4 45 119 65 152 17 26 74 31 94 7z m-15 -383 c-3 -8 -5 -17
-5 -22 0 -5 -15 -6 -34 -3 -34 5 -35 4 -66 -56 l-30 -61 23 -24 c21 -21 22
-26 11 -47 -7 -13 -13 -19 -14 -13 0 15 -126 181 -140 186 -9 3 -9 10 0 28 11
25 13 25 136 25 99 0 123 -3 119 -13z m-123 -248 c5 -4 -82 -175 -98 -193 -2
-2 -12 3 -21 11 -10 9 -53 34 -95 58 -43 23 -78 45 -78 48 1 17 18 34 24 24 8
-13 149 -92 163 -92 6 0 25 34 44 75 31 68 46 85 61 69z m-352 -214 c10 -7 11
-13 5 -17 -6 -5 -28 -37 -48 -72 -30 -50 -35 -66 -25 -73 26 -18 50 -30 52
-26 18 25 46 83 46 94 0 11 4 12 19 4 19 -10 18 -12 -14 -62 l-34 -52 32 -22
32 -22 16 20 c9 12 29 46 45 77 16 31 30 58 31 60 2 2 10 -2 18 -9 9 -7 12
-16 7 -19 -5 -3 -31 -42 -57 -86 -27 -44 -49 -81 -50 -83 -1 -1 -40 22 -86 53
-46 30 -90 55 -96 55 -19 0 -17 6 34 89 25 42 46 82 46 89 0 14 7 15 27 2z
m-76 -264 c44 -18 76 -61 76 -101 0 -37 -97 -196 -108 -178 -15 22 -165 123
-175 116 -12 -8 -7 2 51 85 41 58 80 91 110 92 7 0 27 -6 46 -14z"/>
<path d="M7078 3788 l-38 -10 42 -35 c45 -37 50 -35 63 25 7 36 1 38 -67 20z"/>
<path d="M6957 3468 c-16 -26 -42 -116 -35 -123 2 -2 19 -6 37 -7 32 -3 34 -1
48 45 19 65 14 101 -14 105 -14 2 -27 -5 -36 -20z"/>
<path d="M6817 2952 c-15 -7 -13 -12 21 -45 l38 -37 16 45 17 45 -37 -1 c-20
0 -45 -4 -55 -7z"/>
<path d="M6704 2745 c-30 -69 -30 -69 1 -83 38 -18 39 -17 64 43 27 64 22 95
-15 95 -21 0 -29 -10 -50 -55z"/>
<path d="M6570 2402 c0 -4 14 -25 32 -46 l31 -38 18 33 c28 53 25 59 -31 59
-27 0 -50 -3 -50 -8z"/>
<path d="M6139 1667 c-17 -13 -69 -87 -69 -98 0 -9 139 -104 143 -98 34 41 67
104 67 127 0 43 -43 82 -89 82 -20 0 -43 -6 -52 -13z"/>
<path d="M1701 4254 c0 -11 3 -14 6 -6 3 7 2 16 -1 19 -3 4 -6 -2 -5 -13z"/>
<path d="M1750 4170 c-13 -9 -13 -10 0 -10 8 0 22 5 30 10 13 9 13 10 0 10 -8
0 -22 -5 -30 -10z"/>
<path d="M5922 4090 c-7 -12 -10 -25 -7 -30 4 -6 2 -10 -4 -10 -6 0 -7 -7 -4
-17 4 -10 2 -14 -4 -10 -5 3 -33 -41 -62 -101 -202 -418 -398 -730 -680 -1082
-35 -44 -55 -77 -49 -81 7 -4 6 -9 -2 -14 -8 -5 -8 -11 3 -23 8 -10 22 -33 32
-52 20 -39 113 -133 169 -170 52 -35 67 -50 60 -62 -3 -5 3 -4 15 4 12 7 21
17 21 22 0 4 -6 3 -13 -3 -10 -8 -14 -7 -14 4 0 8 3 12 7 10 11 -7 68 40 99
81 16 22 43 52 60 68 17 17 31 35 31 41 0 6 14 24 30 40 17 16 30 34 30 40 0
7 9 20 20 30 11 10 20 23 20 30 0 7 9 20 20 30 11 10 20 22 20 27 0 5 11 20
25 34 14 14 34 44 44 68 11 23 27 49 36 56 8 7 15 18 15 25 0 7 7 18 15 25 9
7 25 33 35 56 11 24 24 45 30 49 5 3 24 36 41 73 18 37 37 70 42 74 6 3 12 13
13 22 1 8 25 63 54 121 29 58 53 113 54 122 2 9 8 19 14 21 7 2 12 12 12 21 0
10 3 21 7 25 4 3 8 26 9 49 1 23 0 34 -3 25 -8 -31 -21 -20 -38 32 -9 28 -30
65 -46 83 -17 18 -34 50 -40 72 -6 22 -23 55 -38 73 -16 17 -34 45 -41 62 -7
16 -16 30 -21 30 -5 0 -6 7 -3 15 9 21 1 19 -14 -5z m-462 -1229 c16 -16 32
-40 36 -55 6 -25 -11 -86 -25 -86 -6 0 -101 153 -101 164 0 3 14 6 31 6 20 0
40 -10 59 -29z m-95 -43 c15 -29 38 -68 51 -87 27 -40 22 -58 -6 -21 -31 41
-88 148 -82 154 8 9 8 9 37 -46z m-39 -1 c6 -12 25 -48 43 -79 29 -52 31 -58
14 -58 -20 0 -61 25 -80 50 -13 16 -18 92 -6 103 11 12 18 8 29 -16z"/>
<path d="M5981 4094 c0 -11 3 -14 6 -6 3 7 2 16 -1 19 -3 4 -6 -2 -5 -13z"/>
<path d="M1791 4084 c0 -11 3 -14 6 -6 3 7 2 16 -1 19 -3 4 -6 -2 -5 -13z"/>
<path d="M1940 3869 c0 -5 5 -7 10 -4 6 3 10 8 10 11 0 2 -4 4 -10 4 -5 0 -10
-5 -10 -11z"/>
<path d="M6177 3745 c3 -8 9 -12 14 -9 12 7 11 11 -5 17 -10 4 -13 1 -9 -8z"/>
<path d="M5574 3722 c4 -7 1 -12 -8 -12 -17 0 -30 -16 -19 -23 5 -2 16 4 26
13 14 13 15 20 6 26 -8 4 -10 3 -5 -4z"/>
<path d="M5610 3700 c-9 -6 -10 -10 -3 -10 6 0 15 5 18 10 8 12 4 12 -15 0z"/>
<path d="M6175 3700 c-3 -5 -1 -10 4 -10 6 0 11 5 11 10 0 6 -2 10 -4 10 -3 0
-8 -4 -11 -10z"/>
<path d="M5530 3670 c0 -5 5 -10 11 -10 5 0 7 5 4 10 -3 6 -8 10 -11 10 -2 0
-4 -4 -4 -10z"/>
<path d="M5420 3660 c-8 -5 -11 -12 -8 -16 4 -3 14 1 23 10 18 17 9 21 -15 6z"/>
<path d="M5480 3660 c-8 -5 -12 -11 -10 -14 3 -2 14 2 24 10 22 15 10 19 -14
4z"/>
<path d="M5494 3628 c-4 -6 -3 -13 3 -15 13 -5 5 -43 -9 -43 -5 0 -16 -16 -24
-36 -12 -29 -17 -34 -29 -24 -18 15 -19 21 -4 18 7 -2 15 9 20 25 4 16 4 25
-2 21 -5 -3 -9 -11 -9 -18 0 -13 -40 -30 -49 -21 -2 3 1 16 7 30 7 15 8 25 2
25 -5 0 -12 -12 -16 -27 -3 -16 -8 -34 -10 -42 -3 -8 1 -11 11 -7 24 9 17 -10
-7 -22 -19 -9 -20 -11 -5 -11 10 -1 15 -6 12 -12 -4 -6 -13 -8 -21 -5 -8 3
-14 1 -14 -4 0 -17 -28 -11 -39 7 -17 31 -24 6 -8 -27 21 -42 12 -60 -28 -60
-19 0 -37 -5 -41 -11 -4 -8 0 -9 15 -4 26 8 28 -6 2 -22 -10 -6 -24 -27 -30
-45 -10 -30 -9 -31 4 -14 8 11 15 23 15 27 0 4 11 9 25 11 31 6 32 -5 3 -20
-20 -10 -21 -12 -3 -9 11 1 24 12 30 24 22 44 37 53 84 53 35 0 49 5 58 19 11
17 9 20 -15 26 -31 6 -43 45 -14 45 14 0 15 -2 2 -10 -12 -8 -12 -10 3 -15 11
-5 27 3 48 24 17 17 34 31 39 31 4 0 11 8 14 17 6 16 6 16 -12 0 -27 -25 -50
-23 -28 2 10 11 15 24 12 29 -3 5 1 15 9 22 8 7 15 19 15 26 0 8 11 16 24 20
14 3 27 12 30 20 7 18 -2 18 -20 -1 -9 -8 -20 -15 -26 -15 -5 0 -8 7 -4 15 6
18 -10 20 -20 3z m-64 -128 c0 -5 -4 -10 -10 -10 -5 0 -10 5 -10 10 0 6 5 10
10 10 6 0 10 -4 10 -10z m30 -30 c0 -5 -7 -10 -15 -10 -8 0 -15 5 -15 10 0 6
7 10 15 10 8 0 15 -4 15 -10z m-125 -40 c3 -5 24 -14 45 -20 22 -6 40 -15 40
-20 0 -6 -9 -6 -22 -1 -13 5 -33 5 -45 0 -20 -7 -23 -5 -23 15 0 14 -6 27 -12
29 -10 4 -10 6 -1 6 6 1 15 -3 18 -9z m-48 -85 c-4 -8 -13 -15 -22 -15 -13 0
-12 3 3 18 19 21 27 20 19 -3z"/>
<path d="M5430 3620 c-9 -6 -10 -10 -3 -10 6 0 15 5 18 10 8 12 4 12 -15 0z"/>
<path d="M5456 3605 c-3 -8 -1 -15 3 -15 5 0 11 7 15 15 3 8 1 15 -3 15 -5 0
-11 -7 -15 -15z"/>
<path d="M2120 3590 c0 -5 5 -10 10 -10 6 0 10 5 10 10 0 6 -4 10 -10 10 -5 0
-10 -4 -10 -10z"/>
<path d="M5342 3580 c-7 -11 -8 -20 -3 -20 9 0 24 30 18 36 -1 2 -8 -6 -15
-16z"/>
<path d="M5306 3573 c-6 -14 -5 -15 5 -6 7 7 10 15 7 18 -3 3 -9 -2 -12 -12z"/>
<path d="M5508 3533 c7 -3 16 -2 19 1 4 3 -2 6 -13 5 -11 0 -14 -3 -6 -6z"/>
<path d="M5325 3510 c-3 -5 1 -10 9 -10 9 0 16 5 16 10 0 6 -4 10 -9 10 -6 0
-13 -4 -16 -10z"/>
<path d="M5320 3479 c0 -5 5 -7 10 -4 6 3 10 8 10 11 0 2 -4 4 -10 4 -5 0 -10
-5 -10 -11z"/>
<path d="M5276 3435 c-3 -8 -1 -15 4 -15 6 0 10 7 10 15 0 8 -2 15 -4 15 -2 0
-6 -7 -10 -15z"/>
<path d="M5353 3344 c-11 -8 -13 -13 -5 -14 6 0 12 -5 12 -11 0 -5 -4 -8 -8
-5 -5 3 -18 -4 -30 -14 -12 -11 -25 -20 -30 -20 -5 0 -15 -7 -22 -15 -7 -8
-23 -15 -36 -15 -13 0 -24 -5 -24 -11 0 -6 7 -8 15 -5 10 4 19 -2 24 -16 7
-20 8 -19 20 10 9 21 21 32 43 36 39 8 58 23 58 47 0 12 10 23 25 29 14 5 25
11 25 14 0 9 -51 2 -67 -10z"/>
<path d="M2315 3310 c-8 -13 5 -13 25 0 13 8 13 10 -2 10 -9 0 -20 -4 -23 -10z"/>
<path d="M5189 3293 c-13 -16 -12 -17 4 -4 16 13 21 21 13 21 -2 0 -10 -8 -17
-17z"/>
<path d="M2388 3253 c7 -3 16 -2 19 1 4 3 -2 6 -13 5 -11 0 -14 -3 -6 -6z"/>
<path d="M5170 3248 c0 -4 7 -8 15 -8 8 0 15 4 15 8 0 5 -7 9 -15 9 -8 0 -15
-4 -15 -9z"/>
<path d="M5355 3250 c-3 -5 -1 -10 4 -10 6 0 11 5 11 10 0 6 -2 10 -4 10 -3 0
-8 -4 -11 -10z"/>
<path d="M5280 3214 c-11 -19 -20 -24 -37 -21 -23 4 -31 -7 -13 -18 15 -9 12
-22 -9 -42 -19 -18 -19 -18 4 -19 17 -1 23 4 23 21 0 13 17 40 41 64 31 31 37
41 23 41 -10 0 -25 -12 -32 -26z"/>
<path d="M5171 3194 c-13 -13 -20 -24 -15 -24 6 0 15 5 22 12 9 9 12 8 12 -5
0 -9 5 -17 10 -17 6 0 10 7 10 15 0 8 -4 15 -10 15 -5 0 -7 7 -4 15 8 20 4 18
-25 -11z"/>
<path d="M5218 3213 c7 -3 16 -2 19 1 4 3 -2 6 -13 5 -11 0 -14 -3 -6 -6z"/>
<path d="M2410 3180 c0 -5 5 -10 11 -10 5 0 7 5 4 10 -3 6 -8 10 -11 10 -2 0
-4 -4 -4 -10z"/>
<path d="M5168 3143 c6 -2 18 -2 25 0 6 3 1 5 -13 5 -14 0 -19 -2 -12 -5z"/>
<path d="M5102 3110 c-10 -16 -10 -20 1 -20 7 0 13 9 14 20 1 11 1 20 0 20 -1
0 -8 -9 -15 -20z"/>
<path d="M5135 3110 c-3 -5 -1 -10 4 -10 6 0 11 5 11 10 0 6 -2 10 -4 10 -3 0
-8 -4 -11 -10z"/>
<path d="M5160 3100 c-6 -11 -19 -20 -29 -20 -10 0 -21 -9 -24 -20 -3 -11 -13
-20 -22 -20 -13 0 -16 -6 -12 -21 4 -16 -1 -24 -26 -34 l-32 -14 37 2 c21 1
38 5 38 9 0 14 44 48 61 48 10 0 20 4 24 9 3 6 -4 8 -15 6 -13 -2 -20 1 -20
11 0 8 5 12 10 9 6 -3 10 -2 10 4 0 5 19 14 43 20 33 8 35 10 9 7 -24 -2 -31
1 -28 11 8 21 -12 15 -24 -7z m-60 -74 c0 -3 -4 -8 -10 -11 -5 -3 -10 -1 -10
4 0 6 5 11 10 11 6 0 10 -2 10 -4z"/>
<path d="M5205 3060 c-3 -6 1 -7 9 -4 18 7 21 14 7 14 -6 0 -13 -4 -16 -10z"/>
<path d="M5124 2986 c-15 -16 -25 -46 -15 -46 9 0 36 48 30 54 -2 2 -9 -1 -15
-8z"/>
<path d="M5035 2940 c-3 -6 1 -7 9 -4 18 7 21 14 7 14 -6 0 -13 -4 -16 -10z"/>
<path d="M5016 2903 c-6 -14 -5 -15 5 -6 7 7 10 15 7 18 -3 3 -9 -2 -12 -12z"/>
<path d="M5000 2871 c0 -5 -8 -12 -17 -14 -15 -4 -15 -5 -2 -6 9 0 22 6 29 14
9 10 9 15 1 15 -6 0 -11 -4 -11 -9z"/>
<path d="M4926 2791 c-4 -5 3 -7 14 -4 23 6 26 13 6 13 -8 0 -17 -4 -20 -9z"/>
<path d="M4825 2780 c3 -5 8 -10 11 -10 2 0 4 5 4 10 0 6 -5 10 -11 10 -5 0
-7 -4 -4 -10z"/>
<path d="M4865 2770 c4 -6 -4 -19 -16 -29 l-23 -18 27 0 c15 0 27 2 28 6 0 3
2 14 4 23 2 9 -4 19 -12 22 -8 3 -11 1 -8 -4z"/>
<path d="M4775 2750 c3 -5 8 -10 11 -10 2 0 4 5 4 10 0 6 -5 10 -11 10 -5 0
-7 -4 -4 -10z"/>
<path d="M4575 2730 c-8 -13 5 -13 25 0 13 8 13 10 -2 10 -9 0 -20 -4 -23 -10z"/>
<path d="M4648 2723 c7 -3 16 -2 19 1 4 3 -2 6 -13 5 -11 0 -14 -3 -6 -6z"/>
<path d="M4730 2710 c-6 -11 -8 -20 -6 -20 3 0 10 9 16 20 6 11 8 20 6 20 -3
0 -10 -9 -16 -20z"/>
<path d="M4779 2707 c7 -7 14 -8 21 -1 6 6 2 10 -12 11 -16 2 -18 -1 -9 -10z"/>
<path d="M4827 2703 c-10 -9 -9 -23 2 -23 5 0 11 7 15 15 5 15 -5 20 -17 8z"/>
<path d="M4580 2670 c0 -5 5 -10 10 -10 6 0 10 5 10 10 0 6 -4 10 -10 10 -5 0
-10 -4 -10 -10z"/>
<path d="M2818 2663 c7 -3 16 -2 19 1 4 3 -2 6 -13 5 -11 0 -14 -3 -6 -6z"/>
<path d="M4626 2662 c-3 -5 1 -9 9 -9 8 0 15 4 15 9 0 4 -4 8 -9 8 -6 0 -12
-4 -15 -8z"/>
<path d="M4702 2661 c21 -14 12 -51 -13 -51 -11 0 -19 -5 -19 -11 0 -5 -5 -7
-11 -3 -11 6 -29 -12 -29 -30 0 -4 16 -5 35 -2 24 5 35 3 35 -5 0 -8 -15 -10
-49 -6 -43 5 -52 3 -80 -22 -17 -15 -31 -35 -31 -44 0 -9 -15 -20 -35 -27 -19
-6 -35 -16 -35 -21 0 -5 3 -8 8 -8 26 4 32 -2 22 -21 -7 -14 -7 -20 0 -20 5 0
10 7 10 15 0 8 6 15 13 15 6 1 1 7 -13 15 l-25 14 25 2 c14 1 33 1 43 0 19 -2
24 27 7 47 -7 8 -7 9 1 3 6 -5 23 -6 38 -1 14 5 43 11 64 15 20 3 37 10 37 16
0 6 4 8 9 5 5 -3 14 1 21 9 11 13 10 14 -3 9 -13 -5 -15 -1 -11 18 3 12 6 34
7 48 2 24 37 44 37 21 0 -6 -4 -11 -10 -11 -5 0 -10 -4 -10 -10 0 -5 7 -10 15
-10 8 0 15 7 15 15 0 9 6 12 15 9 8 -4 15 -1 15 4 0 6 8 12 18 15 9 2 1 4 -18
4 -19 0 -53 3 -75 7 -30 6 -36 5 -23 -3z m-2 -71 c0 -5 -4 -10 -10 -10 -5 0
-10 5 -10 10 0 6 5 10 10 10 6 0 10 -4 10 -10z m-42 -61 c-12 -7 -24 -7 -35 0
-15 9 -12 10 17 10 29 0 32 -1 18 -10z"/>
<path d="M4560 2644 c0 -8 5 -12 10 -9 6 4 8 11 5 16 -9 14 -15 11 -15 -7z"/>
<path d="M4670 2650 c0 -5 5 -10 11 -10 5 0 7 5 4 10 -3 6 -8 10 -11 10 -2 0
-4 -4 -4 -10z"/>
<path d="M4628 2633 c6 -2 10 -8 7 -13 -3 -4 5 -6 17 -2 21 5 21 6 2 13 -10 4
-23 8 -29 8 -5 -1 -4 -3 3 -6z"/>
<path d="M4573 2583 c-3 -7 -12 -13 -20 -13 -8 0 -11 -5 -8 -10 4 -7 14 -5 28
5 12 8 29 15 39 15 10 0 18 4 18 9 0 14 -52 8 -57 -6z"/>
<path d="M4740 2590 c0 -6 7 -10 15 -10 8 0 15 2 15 4 0 2 -7 6 -15 10 -8 3
-15 1 -15 -4z"/>
<path d="M4500 2585 c0 -5 5 -17 10 -25 5 -8 10 -10 10 -5 0 6 -5 17 -10 25
-5 8 -10 11 -10 5z"/>
<path d="M2882 2550 c-21 -18 -22 -19 -3 -17 11 1 23 8 26 16 8 21 2 21 -23 1z"/>
<path d="M4470 2495 c0 -8 8 -11 20 -8 11 3 20 7 20 8 0 1 -9 5 -20 8 -12 3
-20 0 -20 -8z"/>
<path d="M4824 2482 c-17 -15 -79 -69 -137 -120 -99 -86 -124 -122 -76 -107
14 5 17 2 13 -8 -3 -9 5 -32 19 -54 13 -21 27 -45 30 -53 4 -8 18 -33 32 -55
53 -86 95 -164 95 -177 0 -10 3 -9 10 2 9 13 10 13 10 -1 0 -8 -5 -20 -12 -27
-20 -20 2 -13 24 8 12 11 29 20 38 20 9 0 53 38 99 84 69 71 82 89 76 108 -4
13 -3 18 2 11 6 -8 12 -3 21 15 9 19 9 23 0 14 -26 -26 -46 -13 -63 39 -10 28
-23 53 -31 56 -8 3 -14 12 -14 21 0 8 -11 30 -25 48 -14 18 -25 36 -25 39 0 4
-9 18 -19 32 -11 13 -17 31 -14 40 5 13 3 14 -18 3 l-23 -13 17 27 c10 14 13
26 8 26 -5 0 -13 -4 -16 -10 -3 -5 -14 -10 -23 -9 -11 0 -12 3 -4 6 6 2 12 10
12 16 0 6 7 19 17 29 24 26 13 22 -23 -10z m-210 -207 c-4 -8 -11 -15 -16 -15
-6 0 -5 6 2 15 7 8 14 15 16 15 2 0 1 -7 -2 -15z"/>
<path d="M4601 2469 c-13 -11 -21 -22 -18 -25 8 -8 25 4 37 27 13 24 11 23
-19 -2z"/>
<path d="M4440 2450 c-9 -6 -10 -10 -3 -10 6 0 15 5 18 10 8 12 4 12 -15 0z"/>
<path d="M2980 2431 c0 -6 4 -13 10 -16 6 -3 7 1 4 9 -7 18 -14 21 -14 7z"/>
<path d="M4545 2430 c3 -5 8 -10 11 -10 2 0 4 5 4 10 0 6 -5 10 -11 10 -5 0
-7 -4 -4 -10z"/>
<path d="M3063 2335 c-3 -9 -3 -18 -1 -21 3 -3 8 4 11 16 6 23 -1 27 -10 5z"/>
<path d="M3060 2286 c0 -8 -10 -22 -21 -30 -27 -18 -21 -36 22 -67 18 -12 29
-18 26 -12 -4 7 -3 14 3 18 5 3 10 -2 10 -13 0 -10 9 -27 20 -37 17 -16 20
-16 26 -2 3 9 0 24 -6 34 -10 16 -11 16 -6 1 3 -10 1 -20 -4 -23 -5 -3 -12 10
-15 29 -6 27 -11 34 -26 31 -17 -4 -19 1 -16 41 2 24 0 44 -5 44 -4 0 -8 -6
-8 -14z"/>
<path d="M3092 2244 c-7 -8 -8 -14 -3 -14 10 0 25 19 20 25 -2 1 -10 -3 -17
-11z"/>
<path d="M3156 2141 c-4 -7 -5 -15 -2 -18 9 -9 19 4 14 18 -4 11 -6 11 -12 0z"/>
<path d="M3195 2110 c-3 -5 -1 -10 4 -10 6 0 11 5 11 10 0 6 -2 10 -4 10 -3 0
-8 -4 -11 -10z"/>
<path d="M3654 1516 c-30 -30 -34 -40 -34 -84 0 -43 5 -55 31 -81 29 -29 51
-36 104 -32 56 5 95 54 95 121 0 34 -6 48 -34 76 -29 29 -41 34 -81 34 -40 0
-52 -5 -81 -34z m157 -7 c23 -24 29 -40 29 -74 0 -26 -6 -47 -15 -55 -9 -7
-17 -11 -18 -9 -3 4 -84 143 -94 162 -2 4 12 7 32 7 28 0 44 -7 66 -31z m-67
-101 c21 -37 34 -68 29 -68 -9 0 -33 38 -74 114 -14 27 -29 45 -32 40 -3 -6 8
-31 24 -57 16 -26 29 -51 29 -56 0 -5 7 -14 15 -21 23 -19 18 -30 -16 -30 -75
0 -118 105 -66 162 l22 26 16 -21 c9 -11 33 -51 53 -89z"/>
<path d="M1745 1319 c-77 -14 -185 -39 -232 -55 -73 -24 -206 -90 -240 -118
l-33 -28 0 -374 0 -374 28 -5 c15 -4 35 -10 44 -16 10 -5 27 -9 37 -9 11 0 22
-4 25 -9 3 -5 18 -11 33 -14 16 -3 62 -15 103 -27 163 -48 417 -110 447 -110
17 0 35 -4 38 -10 3 -5 25 -10 49 -10 23 0 46 -4 52 -9 5 -5 29 -12 54 -15 44
-5 65 -8 260 -40 171 -29 302 -44 610 -72 233 -22 995 -25 1225 -6 411 34 658
62 910 103 33 6 85 12 115 15 30 3 59 10 65 15 5 5 33 9 61 9 29 0 56 5 59 10
3 6 21 10 39 10 58 0 507 96 596 128 8 3 24 7 35 8 51 9 108 30 126 47 18 17
19 35 19 375 0 297 -2 361 -15 378 -24 35 -180 105 -315 143 -156 43 -447 74
-529 56 l-31 -7 0 -183 0 -183 -37 -6 c-21 -2 -74 -10 -118 -15 -44 -6 -116
-16 -160 -22 -77 -11 -144 -17 -415 -39 -480 -38 -1295 -38 -1785 0 -310 24
-423 37 -674 74 -58 9 -108 16 -113 16 -4 0 -8 86 -8 190 l0 190 -137 -1 c-76
-1 -160 -5 -188 -10z m807 -740 c59 -15 78 -79 37 -120 -19 -19 -30 -21 -101
-17 -43 3 -81 1 -83 -3 -3 -4 -6 -30 -7 -58 -2 -39 -6 -51 -19 -51 -8 0 -18 2
-21 5 -2 3 2 47 9 98 8 50 13 109 11 130 l-4 38 71 -7 c38 -3 87 -10 107 -15z
m2483 -14 c33 -32 31 -61 -6 -96 l-31 -29 37 -45 c20 -25 42 -45 48 -46 17 -1
-24 -17 -45 -18 -10 -1 -17 3 -15 8 1 4 -13 29 -31 55 -28 38 -39 46 -65 46
-46 0 -76 -10 -72 -23 2 -7 6 -33 9 -59 5 -46 4 -48 -19 -48 -18 0 -23 4 -19
15 6 14 -12 200 -22 237 -4 14 4 18 48 21 143 10 158 8 183 -18z m-2164 -21
c52 -26 44 -103 -13 -123 l-29 -10 27 -48 c15 -26 32 -54 37 -60 7 -10 1 -13
-23 -13 -19 0 -31 3 -27 6 7 7 -28 80 -51 107 -10 11 -30 17 -57 17 l-42 0 -6
-45 c-4 -24 -4 -52 0 -62 5 -13 3 -15 -11 -10 -10 4 -21 7 -25 7 -4 0 -2 53 6
118 7 64 10 123 8 131 -5 11 11 12 87 6 51 -4 105 -13 119 -21z m1549 -10 c0
-21 -3 -24 -21 -19 -11 4 -36 4 -55 0 l-34 -6 0 -102 c0 -67 4 -107 12 -115 9
-9 6 -12 -15 -12 -26 0 -27 2 -27 54 0 29 -3 81 -7 116 l-6 62 -54 -4 c-48 -4
-53 -3 -53 16 0 20 4 21 105 18 60 -2 112 1 122 7 27 16 33 13 33 -15z m270
11 c37 -19 70 -74 70 -116 0 -40 -29 -91 -64 -114 -40 -26 -135 -31 -181 -10
-96 46 -100 179 -7 233 45 26 138 30 182 7z m-1500 -20 c41 -21 70 -71 70
-121 0 -107 -138 -165 -253 -107 -100 51 -81 208 29 243 39 12 116 5 154 -15z
m266 7 c79 3 84 2 84 -18 0 -19 -5 -20 -61 -16 l-61 5 4 -122 c3 -115 2 -121
-17 -121 -19 0 -20 5 -16 120 l3 120 -56 0 c-52 0 -56 2 -56 24 0 23 1 23 46
14 25 -6 84 -8 130 -6z m344 -14 c0 -22 -2 -23 -95 -20 l-95 3 0 -46 0 -47 70
4 c63 3 70 2 70 -15 0 -17 -7 -19 -67 -16 l-68 4 -3 -48 -3 -48 95 3 c86 3 96
1 96 -14 0 -16 -12 -18 -121 -18 -105 0 -120 2 -109 15 8 10 11 51 8 134 l-3
120 110 4 c61 1 111 4 113 5 1 1 2 -8 2 -20z m282 4 c46 -17 46 -18 33 -42 -8
-14 -14 -20 -15 -14 0 18 -48 34 -104 34 -44 0 -58 -5 -79 -26 -33 -33 -41
-57 -33 -99 12 -63 90 -99 161 -75 20 7 41 20 48 31 10 17 13 17 29 2 17 -15
16 -16 -5 -32 -57 -43 -127 -53 -190 -26 -51 21 -77 63 -77 124 0 109 109 167
232 123z"/>
<path d="M2416 553 c-14 -35 -6 -71 17 -77 38 -10 122 -7 135 6 37 37 -4 73
-90 81 -44 4 -58 2 -62 -10z"/>
<path d="M4870 553 c-23 -4 -25 -7 -22 -49 l4 -45 62 7 c89 10 106 18 106 53
0 17 -6 31 -16 35 -16 6 -91 6 -134 -1z"/>
<path d="M2700 506 c0 -20 0 -39 0 -43 -1 -5 27 -12 61 -17 74 -10 109 2 109
38 0 35 -17 43 -97 51 l-73 8 0 -37z"/>
<path d="M4528 514 c-29 -15 -58 -61 -58 -89 0 -30 30 -75 62 -91 47 -24 121
-14 158 21 42 41 42 104 1 146 -25 25 -37 29 -83 29 -29 -1 -65 -7 -80 -16z"/>
<path d="M3033 500 c-39 -23 -53 -48 -53 -92 0 -43 24 -76 66 -94 44 -18 76
-18 118 3 87 41 80 151 -11 189 -45 19 -82 17 -120 -6z"/>
</g>
</svg>
